<svg xmlns="http://www.w3.org/2000/svg" id="Capa_1" version="1.1" viewBox="0 0 167.99 300">
  <!-- Generator: Adobe Illustrator 30.3.0, SVG Export Plug-In . SVG Version: 2.1.3 Build 182)  -->
  <defs>
    <style>
      .st0 {
        fill: #1d1d1b;
      }

      .st1 {
        fill: #fbb823;
      }
    </style>
  </defs>
  <path class="st1" d="M83,292.69c-43.33,0-70.86-25.89-75.55-71.03-.03-.25-.04-.5-.04-.75v-63.25c0-4.04,3.28-7.32,7.32-7.32h72.92c40.27,0,73.02,32.76,73.02,73.02v.68c0,18.22-8,35.54-22.52,48.77-13.86,12.63-32.25,19.87-50.46,19.87h-4.7Z"/>
  <path class="st0" d="M108.69,145.82c22.86-13.74,38.19-38.77,38.19-67.33v-4.26C146.88,33.3,113.58,0,72.64,0S.1,32.54.1,72.55v52.08h-.1v47.73h.1v48.55c0,.5.03,1.01.08,1.51,2.73,26.31,12.46,46.5,28.93,60.02,14.01,11.5,32.64,17.58,53.9,17.58h4.7c20.01,0,40.2-7.94,55.39-21.78,16.06-14.63,24.91-33.88,24.91-54.18v-.68c0-37.02-25.17-68.27-59.3-77.54ZM14.73,72.55c0-31.99,25.93-57.91,57.92-57.91s59.6,26.68,59.6,59.6v4.26c0,35.27-28.59,63.86-63.86,63.86H14.73v-69.8ZM153.36,224.04c0,33.87-31.8,61.33-65.67,61.33h-4.7c-32.91,0-63.3-16.52-68.27-64.47v-63.25h72.92c36.29,0,65.71,29.42,65.71,65.71v.68Z"/>
</svg>