<svg xmlns="http://www.w3.org/2000/svg" id="Capa_1" version="1.1" viewBox="0 0 1148.34 418.1">
  <!-- Generator: Adobe Illustrator 30.3.0, SVG Export Plug-In . SVG Version: 2.1.3 Build 182)  -->
  <defs>
    <style>
      .st0 {
        fill: #1d1d1b;
      }

      .st1 {
        fill: #1d1d1b;
      }

      .st2 {
        fill: #fbb823;
      }
    </style>
  </defs>
  <path class="st2" d="M83,292.69c-43.33,0-70.86-25.89-75.55-71.03-.03-.25-.04-.5-.04-.75v-63.25c0-4.04,3.28-7.32,7.32-7.32h72.92c40.27,0,73.02,32.76,73.02,73.02v.68c0,18.22-8,35.54-22.52,48.77-13.86,12.63-32.25,19.87-50.46,19.87h-4.7Z"/>
  <path class="st0" d="M326.16,176.34c-5.96-10.81-14.3-19.38-24.81-25.46-10.48-6.07-22.69-9.14-36.28-9.14-14.66,0-28.04,3.51-39.78,10.42-11.73,6.91-21.07,16.41-27.76,28.26-6.68,11.83-10.07,25.35-10.07,40.2s3.5,28.76,10.4,40.7c6.9,11.94,16.46,21.5,28.4,28.4,11.94,6.9,25.64,10.4,40.7,10.4,12.21,0,23.68-2.39,34.08-7.09,10.42-4.72,19.17-11.24,25.99-19.39,1.16-1.38,1.07-3.42-.21-4.69l-6.62-6.62c-.7-.7-1.68-1.07-2.67-1.01-.99.06-1.92.55-2.53,1.33-5.51,7.08-12.33,12.46-20.28,15.99-8.03,3.57-16.95,5.38-26.51,5.38-12.79,0-24.11-2.72-33.63-8.07-9.48-5.33-16.94-12.84-22.16-22.31-4.15-7.52-6.69-16.16-7.57-25.76h125.82c1.72,0,3.18-1.25,3.44-2.95.43-2.81.71-5.2.82-7.11.11-1.89.16-3.24.16-4.15,0-13.99-3.01-26.55-8.95-37.32ZM212.12,187.42c5.03-9.17,12.13-16.47,21.1-21.7,8.99-5.23,19.6-7.89,31.53-7.89,11.28,0,21.12,2.53,29.25,7.53,8.12,4.99,14.42,11.99,18.73,20.8,3.65,7.47,5.5,16.06,5.52,25.6h-113.35c.9-9.06,3.31-17.22,7.22-24.35Z"/>
  <path class="st0" d="M458.84,233.17c-4.42-5.78-10.21-10.37-17.22-13.65-6.67-3.12-13.81-5.73-21.21-7.77-7.16-1.97-14.03-4.12-20.42-6.39-5.98-2.12-10.9-5.12-14.6-8.93-3.47-3.56-5.16-8.44-5.16-14.92s2.6-12.32,7.94-16.92c5.43-4.67,13.68-7.04,24.55-7.04,8.71,0,16.71,1.65,23.79,4.89,6.97,3.19,12.45,7.53,16.29,12.9.59.83,1.52,1.36,2.54,1.44,1.02.08,2.02-.28,2.74-1.01l6.62-6.62c1.19-1.19,1.36-3.06.39-4.45-5.19-7.45-12.49-13.21-21.68-17.14-9.03-3.85-19.04-5.8-29.75-5.8-9.92,0-18.68,1.7-26.04,5.04-7.48,3.4-13.37,8.15-17.51,14.12-4.18,6.04-6.3,13.07-6.3,20.9,0,9.6,2.32,17.38,6.91,23.14,4.44,5.58,10.24,9.96,17.26,13.01,6.64,2.89,13.74,5.44,21.08,7.56,7.14,2.07,14,4.37,20.38,6.84,5.96,2.31,10.87,5.6,14.58,9.79,3.5,3.95,5.28,9.54,5.28,16.62,0,7.93-3.04,13.97-9.28,18.47-6.51,4.69-15.48,7.07-26.67,7.07-9.12,0-17.64-1.85-25.33-5.5-7.66-3.63-14.56-9.39-20.5-17.12-.62-.8-1.56-1.3-2.57-1.35-1.01-.05-2,.34-2.7,1.07l-6.62,6.94c-1.22,1.28-1.29,3.27-.16,4.62,4.39,5.26,9.49,9.98,15.17,14.01,5.72,4.08,12.25,7.32,19.4,9.63,7.14,2.31,14.88,3.48,22.99,3.48,15.66,0,28.43-3.81,37.96-11.31,9.78-7.71,14.73-18.23,14.73-31.28,0-10.2-2.31-18.39-6.87-24.35Z"/>
  <path class="st1" d="M640.98,180.6c-6.58-11.94-15.64-21.5-26.94-28.42-11.34-6.93-24.42-10.45-38.88-10.45-10.94,0-21.38,2.11-31.03,6.28-9.7,4.19-18.09,10.34-24.91,18.27-1.06,1.23-2.08,2.51-3.04,3.83v-21.75c0-1.92-1.56-3.48-3.48-3.48h-9.78c-1.92,0-3.48,1.56-3.48,3.48v266.26c0,1.92,1.56,3.48,3.48,3.48h9.78c1.92,0,3.48-1.56,3.48-3.48v-143.55c.91,1.25,1.85,2.47,2.85,3.66,6.71,8.04,14.97,14.35,24.56,18.75,9.57,4.4,20.19,6.63,31.58,6.63,14.46,0,27.59-3.51,39.02-10.44,11.41-6.92,20.48-16.43,26.96-28.28,6.46-11.82,9.73-25.33,9.73-40.15s-3.33-28.7-9.89-40.64ZM543.85,165.84c8.65-5.31,18.87-8,30.36-8s21.83,2.7,30.7,8.02c8.88,5.33,15.99,12.79,21.14,22.19,5.16,9.43,7.77,20.49,7.77,32.87s-2.62,23.19-7.78,32.73c-5.14,9.49-12.3,17-21.27,22.33-8.99,5.33-19.59,8.03-31.51,8.03-11.27,0-21.32-2.69-29.87-7.99-8.57-5.32-15.36-12.77-20.2-22.14-4.87-9.44-7.34-20.41-7.34-32.63s2.52-23.8,7.49-33.24c4.94-9.38,11.84-16.84,20.51-22.16Z"/>
  <path class="st0" d="M981.18,290.83l-85.39-72.18,82.51-67.58c1.14-.93,1.56-2.48,1.07-3.86-.49-1.38-1.8-2.31-3.27-2.31h-13.56c-.81,0-1.59.28-2.21.79l-77.6,63.85V45.39c0-1.92-1.56-3.48-3.48-3.48h-9.78c-1.92,0-3.48,1.56-3.48,3.48v248.09c0,1.92,1.56,3.48,3.48,3.48h9.78c1.92,0,3.48-1.56,3.48-3.48v-65.35l79.76,67.99c.63.54,1.43.83,2.26.83h14.2c1.46,0,2.76-.91,3.26-2.28.5-1.37.09-2.91-1.02-3.85Z"/>
  <path class="st0" d="M1139.39,176.34c-5.96-10.81-14.3-19.38-24.81-25.46-10.48-6.07-22.69-9.14-36.28-9.14-14.66,0-28.04,3.51-39.78,10.42-11.73,6.91-21.07,16.41-27.76,28.26-6.68,11.83-10.07,25.35-10.07,40.2s3.5,28.76,10.4,40.7c6.9,11.94,16.46,21.5,28.4,28.4,11.94,6.9,25.64,10.4,40.7,10.4,12.21,0,23.68-2.39,34.08-7.09,10.42-4.72,19.17-11.24,25.99-19.39,1.16-1.38,1.07-3.42-.21-4.69l-6.62-6.62c-.7-.7-1.68-1.07-2.67-1.01-.99.06-1.92.55-2.53,1.33-5.51,7.08-12.33,12.46-20.28,15.99-8.03,3.57-16.95,5.38-26.51,5.38-12.79,0-24.1-2.72-33.63-8.07-9.48-5.33-16.94-12.84-22.16-22.31-4.15-7.52-6.69-16.16-7.57-25.76h125.82c1.72,0,3.18-1.25,3.44-2.95.43-2.81.71-5.2.82-7.11.11-1.89.16-3.24.16-4.15,0-13.99-3.01-26.55-8.95-37.32ZM1025.36,187.42c5.03-9.17,12.13-16.47,21.1-21.7,8.99-5.23,19.6-7.89,31.53-7.89,11.28,0,21.12,2.53,29.25,7.53,8.12,4.99,14.42,11.99,18.73,20.8,3.65,7.47,5.5,16.06,5.52,25.6h-113.35c.9-9.06,3.31-17.22,7.22-24.35Z"/>
  <path class="st0" d="M108.69,145.82c22.86-13.74,38.19-38.77,38.19-67.33v-4.26C146.88,33.3,113.58,0,72.64,0S.1,32.54.1,72.55v52.08h-.1v47.73h.1v48.55c0,.5.03,1.01.08,1.51,2.73,26.31,12.46,46.5,28.93,60.02,14.01,11.5,32.64,17.58,53.9,17.58h4.7c20.01,0,40.2-7.94,55.39-21.78,16.06-14.63,24.91-33.88,24.91-54.18v-.68c0-37.02-25.17-68.27-59.3-77.54ZM14.73,72.55c0-31.99,25.93-57.91,57.92-57.91s59.6,26.68,59.6,59.6v4.26c0,35.27-28.59,63.86-63.86,63.86H14.73v-69.8ZM153.36,224.04c0,33.87-31.8,61.33-65.67,61.33h-4.7c-32.91,0-63.3-16.52-68.27-64.47v-63.25h72.92c36.29,0,65.71,29.42,65.71,65.71v.68Z"/>
</svg>