<svg xmlns="http://www.w3.org/2000/svg" id="Capa_1" version="1.1" viewBox="0 0 156.52 158.73">
  <!-- Generator: Adobe Illustrator 30.3.0, SVG Export Plug-In . SVG Version: 2.1.3 Build 182)  -->
  <defs>
    <style>
      .st0 {
        fill: #da167a;
      }
    </style>
  </defs>
  <path class="st0" d="M146.08,38.72c-6.91-11.85-16.37-21.36-28.12-28.28C106.2,3.51,92.89,0,78.42,0s-28.1,3.51-39.87,10.44c-11.74,6.91-21.2,16.43-28.12,28.28C3.51,50.59,0,64.05,0,78.73s3.51,28.55,10.42,40.62c6.91,12.07,16.37,21.74,28.11,28.77,11.76,7.04,25.18,10.61,39.89,10.61s27.8-3.57,39.57-10.61c11.74-7.02,21.2-16.65,28.1-28.6,6.92-11.97,10.43-25.69,10.43-40.79s-3.51-28.14-10.43-40.01ZM131.34,111.34c-5.37,9.64-12.72,17.35-21.85,22.91-9.09,5.54-19.55,8.34-31.07,8.34s-22.04-2.81-31.24-8.35c-9.23-5.56-16.63-13.21-22-22.75-5.37-9.54-8.09-20.56-8.09-32.76s2.72-22.77,8.07-32.09c5.36-9.33,12.76-16.83,21.99-22.29,9.22-5.45,19.74-8.21,31.27-8.21s21.99,2.76,31.09,8.2c9.14,5.47,16.49,12.97,21.85,22.3,5.36,9.33,8.07,20.02,8.07,31.78s-2.72,23.28-8.1,32.93Z"/>
  <path class="st0" d="M101.37,47.33l-55.46,54.7c-2.59,2.55-2.62,6.72-.06,9.31,1.29,1.31,2.99,1.96,4.69,1.96s3.34-.63,4.62-1.9l55.46-54.7c2.59-2.55,2.62-6.72.06-9.31s-6.72-2.62-9.31-.06Z"/>
</svg>